<svg xmlns:xlink="http://www.w3.org/1999/xlink" xmlns="http://www.w3.org/2000/svg" class="sf-svgsprite -sslogo4" width="136.61"  height="49.49" ><defs><symbol viewBox="0 0 136.61 49.49" id="sslogo4" xmlns="http://www.w3.org/2000/svg"><defs><style>.cycls-1{fill:#abb1bf;opacity:.34;isolation:isolate}</style></defs><g id="cyLayer_2" data-name="Layer 2"><g id="cyLayer_1-2" data-name="Layer 1"><g id="cyLayer_2-2" data-name="Layer 2"><g id="cyLayer_1-2-2" data-name="Layer 1-2"><path class="cycls-1" fill="#ABB1BF" opacity=".4" d="M22.05 38.28l7.51-5.54-17.59-4.88-9.73 5.09 19.81 5.33z"></path><path d="M0 24.53l2.24 8.42 9.73-5.09 20.66-10.81L36.15 0 0 24.53zM29.56 32.74l-7.51 5.54-15.17 11.2.01.01 21.17-9.6 1.5-7.15zM60.16 34.22a1.85 1.85 0 00-.37-.25 3 3 0 00-.41-.18l-.47-.2a1.1 1.1 0 01-.4-.24.43.43 0 01-.14-.36.53.53 0 01.21-.45.92.92 0 01.58-.17 1.6 1.6 0 01.53.09 2.41 2.41 0 01.5.21l.23-.47a3.42 3.42 0 00-.59-.26 2.48 2.48 0 00-.76-.1 1.46 1.46 0 00-.68.17 1.1 1.1 0 00-.47.41 1 1 0 00-.17.62.93.93 0 00.11.49 1 1 0 00.3.35 2.1 2.1 0 00.41.24l.41.18a3.75 3.75 0 01.41.19 1 1 0 01.31.27.51.51 0 01.12.38.63.63 0 01-.13.41.79.79 0 01-.35.24 1.15 1.15 0 01-.41.08 1.45 1.45 0 01-.41-.06 2.62 2.62 0 01-.75-.36l-.26.47a3.3 3.3 0 00.41.23 4.09 4.09 0 00.49.18 2.78 2.78 0 00.57.07 1.74 1.74 0 00.78-.17 1.31 1.31 0 00.58-1.65.94.94 0 00-.18-.36zM113.62 31.85h.6v4.5h-.6zM122.2 32.43h1.18v3.92h.6v-3.92h1.2v-.58h-2.98v.58zM135.88 31.85l-1.22 2.32-1.25-2.32h-.73l1.66 3v1.5h.6v-1.5l1.67-3h-.73zM104.94 34.24a1.35 1.35 0 00.24-.48 1.77 1.77 0 00.08-.52 1.41 1.41 0 00-.13-.6 1.08 1.08 0 00-.33-.43 1.29 1.29 0 00-.5-.27 2 2 0 00-.63-.09h-1.19v4.53h.6v-1.65h.82l1.1 1.65h.69l-1.12-1.82a1.3 1.3 0 00.37-.32zm-1.19-.12h-.65v-1.69h.69a.84.84 0 01.41.08 1.05 1.05 0 01.27.2.76.76 0 01.15.28.9.9 0 010 .28.66.66 0 010 .28.72.72 0 01-.42.49 1 1 0 01-.45.08zM69.13 34.38h2.06v-.58h-2.06v-1.37h2.31v-.58h-2.92v4.5h3v-.58h-2.39v-1.39zM93.64 34.76a1.18 1.18 0 01-.14.55 1 1 0 01-.41.37 1.15 1.15 0 01-.57.14 1.07 1.07 0 01-.93-.51 1 1 0 01-.14-.55v-2.91h-.6v2.93a1.62 1.62 0 00.22.86 1.56 1.56 0 00.6.57 2 2 0 001.7 0 1.56 1.56 0 00.81-1.43v-2.93h-.59zM82.2 35.72a1.55 1.55 0 01-.6.1 1.71 1.71 0 01-.68-.12 1.5 1.5 0 01-.52-.37 1.43 1.43 0 01-.33-.54 2 2 0 01-.12-.68 1.82 1.82 0 01.48-1.24 1.85 1.85 0 01.51-.37 1.69 1.69 0 01.63-.13 1.66 1.66 0 01.58.11 3.21 3.21 0 01.45.24l.24-.56a2.61 2.61 0 00-.56-.26 2.43 2.43 0 00-1.64.07 2.15 2.15 0 00-1.16 1.23 2.46 2.46 0 00-.16.93 2.61 2.61 0 00.15.87 2.27 2.27 0 00.46.72 2 2 0 00.69.52 2.53 2.53 0 00.94.18 2.6 2.6 0 00.56-.06 2.34 2.34 0 00.76-.33l-.26-.53a1.68 1.68 0 01-.42.22zM105.59 25.83h2.42v-4.84h4.54v-2.34h-4.54v-2.79h5.23v-2.35h-7.65v12.32zM130.44 23.48v-2.65h5.25v-2.35h-5.25v-2.62h5.94v-2.35h-8.35v12.32h8.58v-2.35h-6.17zM61.14 15.92a2.18 2.18 0 011.22-.31 3.89 3.89 0 011.35.25 8.28 8.28 0 011.43.63l.92-1.86a8.63 8.63 0 00-1.67-.82 6.7 6.7 0 00-2.39-.35 4.53 4.53 0 00-2 .54 3.4 3.4 0 00-1.34 1.24 3.62 3.62 0 00-.47 1.85 3.16 3.16 0 00.32 1.51 3.47 3.47 0 00.83 1 5.65 5.65 0 001.13.68c.41.19.79.36 1.16.51a4.87 4.87 0 01.89.43 2.4 2.4 0 01.64.55 1 1 0 01.27.67 1.08 1.08 0 01-.3.82 1.62 1.62 0 01-.73.44 3.13 3.13 0 01-.86.12 3.41 3.41 0 01-.95-.14 6.29 6.29 0 01-1-.36 7.22 7.22 0 01-.93-.57l-1.07 1.89a7.3 7.3 0 001.37.75 8.85 8.85 0 001.41.44 7.71 7.71 0 001.44.13 4.92 4.92 0 002.29-.48 3.62 3.62 0 001.41-1.31 3.33 3.33 0 00.49-1.74 4 4 0 00-.25-1.49 3 3 0 00-.66-1 3.52 3.52 0 00-1-.68 7.46 7.46 0 00-1.09-.51c-.39-.14-.76-.31-1.13-.48a3.84 3.84 0 01-.88-.61A1.18 1.18 0 0161 16l.1-.09zM79.61 25.83h2.38l3.09-7.46 3.08 7.46h2.38l-5.31-12.32h-.3l-5.32 12.32z"></path></g></g></g></g></symbol></defs><use xlink:href="#sslogo4" fill="#FFFFFF"></use></svg>